<svg width="127" height="40" viewBox="0 0 127 40" fill="none" xmlns="http://www.w3.org/2000/svg">
<g clip-path="url(#clip0_627:1429)">
<path d="M116.334 -7.3291e-06H10.0714C9.68405 -7.3291e-06 9.30135 -7.32904e-06 8.91504 0.00199267C8.59165 0.00399267 8.27085 0.00980267 7.94436 0.0146927C7.23507 0.0225945 6.52746 0.0816689 5.82766 0.191403C5.12884 0.303525 4.45192 0.514908 3.81978 0.818403C3.18841 1.12446 2.61151 1.52216 2.11001 1.99706C1.60588 2.47063 1.18565 3.01801 0.865471 3.61815C0.544412 4.2171 0.321789 4.85893 0.20529 5.52147C0.0876836 6.18318 0.0243986 6.85251 0.0160028 7.52347C0.00620042 7.83007 0.00516526 8.13769 0 8.44433V31.5586C0.00516526 31.8691 0.00620042 32.1699 0.0160028 32.4805C0.0244012 33.1514 0.0876862 33.8207 0.20529 34.4824C0.321467 35.1453 0.544104 35.7875 0.865471 36.3867C1.1855 36.9849 1.60579 37.5301 2.11001 38.001C2.60961 38.478 3.18688 38.876 3.81978 39.1797C4.45191 39.484 5.12877 39.6966 5.82766 39.8105C6.52758 39.9193 7.23512 39.9784 7.94436 39.9873C8.27085 39.9941 8.59165 39.998 8.91504 39.998C9.30134 40 9.68407 40 10.0714 40H116.334C116.714 40 117.1 40 117.479 39.998C117.801 39.998 118.131 39.9941 118.453 39.9873C119.161 39.9789 119.867 39.9198 120.566 39.8105C121.267 39.6958 121.946 39.4833 122.581 39.1797C123.214 38.8758 123.79 38.4778 124.29 38.001C124.792 37.5282 125.214 36.9834 125.538 36.3867C125.857 35.7871 126.077 35.1449 126.192 34.4824C126.309 33.8206 126.375 33.1515 126.388 32.4805C126.392 32.1699 126.392 31.8691 126.392 31.5586C126.4 31.1953 126.4 30.834 126.4 30.4648V9.53612C126.4 9.16991 126.4 8.80663 126.392 8.44433C126.392 8.13769 126.392 7.83007 126.388 7.52343C126.375 6.85242 126.309 6.18323 126.192 5.52143C126.077 4.85927 125.856 4.2175 125.538 3.61811C124.886 2.41519 123.852 1.43602 122.581 0.818313C121.946 0.51556 121.267 0.304233 120.566 0.191313C119.867 0.0810955 119.161 0.0220004 118.453 0.0145527C118.131 0.00967267 117.801 0.00381267 117.479 0.00186267C117.1 -0.000137329 116.714 -0.000137329 116.334 -0.000137329V-7.3291e-06Z" fill="#A6A6A6"/>
<path d="M8.92022 39.125C8.59839 39.125 8.28433 39.1211 7.96503 39.1143C7.30356 39.1061 6.64364 39.0516 5.99067 38.9512C5.38182 38.8519 4.792 38.6673 4.24067 38.4033C3.69441 38.1415 3.19616 37.7983 2.76504 37.3867C2.32767 36.98 1.96354 36.5082 1.68708 35.9902C1.40758 35.4688 1.21414 34.9099 1.11352 34.333C1.00485 33.7131 0.946057 33.0863 0.937644 32.458C0.930947 32.2471 0.92218 31.5449 0.92218 31.5449V8.44434C0.92218 8.44434 0.931518 7.75293 0.937697 7.5498C0.945752 6.92248 1.0042 6.29665 1.11254 5.67773C1.21336 5.09925 1.40694 4.53875 1.6866 4.01563C1.96204 3.49794 2.32415 3.02586 2.75888 2.61768C3.19312 2.20562 3.69296 1.8606 4.24016 1.59521C4.79021 1.33209 5.37892 1.14873 5.98654 1.05127C6.64165 0.949836 7.30386 0.894996 7.96763 0.88721L8.92074 0.875H117.474L118.439 0.8877C119.096 0.895099 119.753 0.94945 120.402 1.05029C121.015 1.14898 121.61 1.33362 122.167 1.59814C123.263 2.13299 124.155 2.97916 124.718 4.01807C124.993 4.53758 125.183 5.09351 125.283 5.66699C125.393 6.29099 125.454 6.92174 125.466 7.5542C125.47 7.8374 125.47 8.1416 125.47 8.44434C125.478 8.81934 125.478 9.17627 125.478 9.53613V30.4648C125.478 30.8281 125.478 31.1826 125.47 31.54C125.47 31.8652 125.47 32.1631 125.465 32.4697C125.453 33.0909 125.393 33.7104 125.285 34.3232C125.186 34.9043 124.994 35.4675 124.715 35.9932C124.436 36.5056 124.074 36.9733 123.642 37.3789C123.21 37.7927 122.711 38.1379 122.164 38.4014C121.609 38.6674 121.015 38.8527 120.402 38.9512C119.749 39.0522 119.089 39.1067 118.427 39.1143C118.118 39.1211 117.794 39.125 117.479 39.125L116.334 39.127L8.92022 39.125Z" fill="black"/>
<path d="M44.6835 27.1396H39.6836L38.4829 30.4961H36.3652L41.101 18.0781H43.3012L48.037 30.4961H45.8831L44.6835 27.1396ZM40.2015 25.5908H44.1647L42.2109 20.1435H42.1563L40.2015 25.5908Z" fill="white"/>
<path d="M58.2646 25.9697C58.2646 28.7832 56.674 30.5908 54.2736 30.5908C53.6656 30.6209 53.0609 30.4883 52.5287 30.2082C51.9965 29.928 51.5585 29.5117 51.2647 29.0068H51.2192V33.4912H49.2562V21.4424H51.1563V22.9482H51.1924C51.4998 22.4458 51.9452 22.0316 52.4815 21.7497C53.0177 21.4679 53.6245 21.3289 54.2375 21.3476C56.6647 21.3477 58.2646 23.1641 58.2646 25.9697ZM56.247 25.9697C56.247 24.1367 55.2464 22.9316 53.7197 22.9316C52.2198 22.9316 51.211 24.1621 51.211 25.9697C51.211 27.7939 52.2198 29.0156 53.7197 29.0156C55.2464 29.0156 56.247 27.8193 56.247 25.9697Z" fill="white"/>
<path d="M68.7904 25.9697C68.7904 28.7832 67.1998 30.5908 64.7994 30.5908C64.1914 30.6209 63.5866 30.4883 63.0545 30.2082C62.5223 29.928 62.0843 29.5117 61.7904 29.0068H61.745V33.4912H59.782V21.4424H61.6821V22.9482H61.7182C62.0255 22.4458 62.471 22.0316 63.0072 21.7497C63.5434 21.4679 64.1503 21.3289 64.7633 21.3476C67.1905 21.3476 68.7904 23.164 68.7904 25.9697ZM66.7727 25.9697C66.7727 24.1367 65.7722 22.9316 64.2455 22.9316C62.7456 22.9316 61.7368 24.1621 61.7368 25.9697C61.7368 27.7939 62.7456 29.0156 64.2455 29.0156C65.7722 29.0156 66.7728 27.8193 66.7728 25.9697H66.7727Z" fill="white"/>
<path d="M75.7471 27.0361C75.8925 28.2676 77.1562 29.0761 78.883 29.0761C80.5375 29.0761 81.7279 28.2675 81.7279 27.1572C81.7279 26.1933 81.01 25.6162 79.31 25.2207L77.6101 24.833C75.2014 24.2822 74.0832 23.2158 74.0832 21.4853C74.0832 19.3427 76.0555 17.871 78.8561 17.871C81.6278 17.871 83.5279 19.3427 83.5919 21.4853H81.6103C81.4917 20.246 80.4096 19.498 78.8283 19.498C77.2469 19.498 76.1648 20.2548 76.1648 21.3564C76.1648 22.2343 76.856 22.7509 78.5467 23.1464L79.9918 23.4823C82.6831 24.0849 83.8013 25.1083 83.8013 26.9247C83.8013 29.248 81.8465 30.703 78.7375 30.703C75.8286 30.703 73.8645 29.2821 73.7376 27.036L75.7471 27.0361Z" fill="white"/>
<path d="M88.0378 19.2998V21.4424H89.8564V22.914H88.0378V27.9053C88.0378 28.6806 88.4019 29.042 89.2014 29.042C89.4173 29.0384 89.6328 29.0241 89.8471 28.999V30.4619C89.4877 30.5254 89.1224 30.5542 88.7568 30.5478C86.8206 30.5478 86.0655 29.8593 86.0655 28.1035V22.914H84.675V21.4424H86.0655V19.2998H88.0378Z" fill="white"/>
<path d="M90.9096 25.9697C90.9096 23.1211 92.6818 21.3311 95.4453 21.3311C98.218 21.3311 99.982 23.1211 99.982 25.9697C99.982 28.8262 98.2273 30.6084 95.4453 30.6084C92.6642 30.6084 90.9096 28.8262 90.9096 25.9697ZM97.9818 25.9697C97.9818 24.0156 97.0359 22.8623 95.4453 22.8623C93.8547 22.8623 92.9098 24.0244 92.9098 25.9697C92.9098 27.9316 93.8547 29.0762 95.4453 29.0762C97.0359 29.0762 97.9818 27.9316 97.9818 25.9697H97.9818Z" fill="white"/>
<path d="M101.6 21.4424H103.473V22.9834H103.518C103.645 22.5021 103.943 22.0768 104.361 21.7789C104.78 21.481 105.295 21.3287 105.818 21.3476C106.045 21.3469 106.27 21.3701 106.491 21.417V23.1552C106.205 23.0726 105.907 23.0347 105.609 23.0429C105.324 23.032 105.039 23.0796 104.776 23.1825C104.512 23.2854 104.274 23.4411 104.08 23.639C103.886 23.8369 103.739 24.0722 103.65 24.3289C103.561 24.5856 103.531 24.8575 103.563 25.1259V30.4961H101.6L101.6 21.4424Z" fill="white"/>
<path d="M115.542 27.8369C115.278 29.4804 113.587 30.6084 111.424 30.6084C108.642 30.6084 106.915 28.8437 106.915 26.0127C106.915 23.1728 108.651 21.331 111.341 21.331C113.987 21.331 115.651 23.0517 115.651 25.7969V26.4336H108.896V26.5459C108.865 26.8791 108.909 27.2147 109.026 27.5306C109.142 27.8464 109.328 28.1352 109.571 28.3778C109.815 28.6203 110.11 28.8111 110.437 28.9374C110.764 29.0637 111.116 29.1226 111.469 29.1103C111.933 29.1515 112.399 29.0498 112.796 28.8203C113.194 28.5909 113.503 28.246 113.678 27.8369L115.542 27.8369ZM108.906 25.1347H113.687C113.705 24.8352 113.657 24.5353 113.546 24.2541C113.435 23.9729 113.265 23.7164 113.044 23.5006C112.824 23.2849 112.559 23.1145 112.266 23.0003C111.973 22.8861 111.658 22.8305 111.341 22.8369C111.022 22.8351 110.705 22.8932 110.409 23.008C110.113 23.1227 109.844 23.2918 109.618 23.5054C109.391 23.7191 109.212 23.973 109.09 24.2527C108.967 24.5323 108.905 24.8321 108.906 25.1348V25.1347Z" fill="white"/>
<path d="M39.9554 8.731C40.367 8.70304 40.7799 8.7619 41.1645 8.90333C41.5492 9.04477 41.8958 9.26525 42.1795 9.54887C42.4632 9.8325 42.6769 10.1722 42.8051 10.5435C42.9334 10.9147 42.973 11.3083 42.9211 11.6958C42.9211 13.6021 41.8328 14.6978 39.9554 14.6978H37.6788V8.731H39.9554ZM38.6578 13.854H39.8461C40.1402 13.8706 40.4344 13.825 40.7075 13.7204C40.9806 13.6158 41.2257 13.4548 41.4248 13.2493C41.6239 13.0437 41.772 12.7987 41.8585 12.5321C41.945 12.2654 41.9676 11.9839 41.9246 11.708C41.9644 11.4332 41.9396 11.1534 41.8518 10.8887C41.764 10.6241 41.6154 10.3811 41.4168 10.1771C41.2181 9.9732 40.9743 9.81339 40.7027 9.70916C40.4312 9.60492 40.1387 9.55884 39.8461 9.57421H38.6578V13.854Z" fill="white"/>
<path d="M44.0269 12.4443C43.997 12.1484 44.0327 11.8498 44.1319 11.5678C44.231 11.2857 44.3913 11.0264 44.6025 10.8064C44.8137 10.5864 45.0711 10.4106 45.3583 10.2904C45.6454 10.1701 45.9559 10.108 46.2699 10.108C46.584 10.108 46.8945 10.1701 47.1816 10.2904C47.4688 10.4106 47.7262 10.5864 47.9374 10.8064C48.1486 11.0264 48.3089 11.2857 48.408 11.5678C48.5072 11.8498 48.5429 12.1484 48.513 12.4443C48.5435 12.7406 48.5082 13.0395 48.4093 13.3221C48.3104 13.6046 48.1502 13.8644 47.939 14.0848C47.7277 14.3052 47.4701 14.4814 47.1827 14.6019C46.8952 14.7224 46.5843 14.7847 46.2699 14.7847C45.9556 14.7847 45.6447 14.7224 45.3572 14.6019C45.0698 14.4814 44.8122 14.3052 44.6009 14.0848C44.3897 13.8644 44.2295 13.6046 44.1306 13.3221C44.0317 13.0395 43.9964 12.7406 44.0269 12.4443ZM47.5475 12.4443C47.5475 11.4683 47.0843 10.8975 46.2715 10.8975C45.4556 10.8975 44.9966 11.4683 44.9966 12.4443C44.9966 13.4282 45.4556 13.9946 46.2715 13.9946C47.0844 13.9946 47.5475 13.4243 47.5475 12.4443H47.5475Z" fill="white"/>
<path d="M54.4763 14.6978H53.5025L52.5195 11.3813H52.4452L51.4663 14.6978H50.5018L49.1907 10.1948H50.1428L50.9949 13.6308H51.065L52.0429 10.1948H52.9435L53.9214 13.6308H53.9956L54.8435 10.1948H55.7822L54.4763 14.6978Z" fill="white"/>
<path d="M56.885 10.1948H57.7886V10.9102H57.8587C57.9777 10.6532 58.1784 10.4379 58.4328 10.2941C58.6873 10.1502 58.9828 10.0852 59.2781 10.1079C59.5095 10.0914 59.7419 10.1245 59.958 10.2046C60.1742 10.2847 60.3685 10.4098 60.5266 10.5706C60.6847 10.7314 60.8025 10.9239 60.8714 11.1337C60.9403 11.3435 60.9584 11.5654 60.9244 11.7827V14.6977H59.9857V12.0059C59.9857 11.2822 59.6536 10.9224 58.9594 10.9224C58.8022 10.9154 58.6454 10.9408 58.4995 10.9966C58.3537 11.0524 58.2224 11.1374 58.1145 11.2458C58.0066 11.3542 57.9248 11.4834 57.8746 11.6245C57.8244 11.7657 57.807 11.9154 57.8236 12.0635V14.6978H56.8849L56.885 10.1948Z" fill="white"/>
<path d="M62.4202 8.437H63.3589V14.6977H62.4202V8.437Z" fill="white"/>
<path d="M64.6637 12.4443C64.6338 12.1484 64.6696 11.8498 64.7688 11.5677C64.8679 11.2857 65.0282 11.0263 65.2395 10.8063C65.4507 10.5863 65.7081 10.4106 65.9953 10.2903C66.2825 10.17 66.593 10.1079 66.9071 10.1079C67.2211 10.1079 67.5316 10.17 67.8188 10.2903C68.106 10.4106 68.3634 10.5863 68.5746 10.8063C68.7859 11.0263 68.9462 11.2857 69.0453 11.5677C69.1445 11.8498 69.1803 12.1484 69.1504 12.4443C69.1808 12.7406 69.1454 13.0396 69.0466 13.3221C68.9477 13.6046 68.7874 13.8644 68.5762 14.0848C68.3649 14.3052 68.1073 14.4814 67.8198 14.6019C67.5323 14.7224 67.2214 14.7847 66.9071 14.7847C66.5927 14.7847 66.2818 14.7224 65.9943 14.6019C65.7069 14.4814 65.4492 14.3052 65.2379 14.0848C65.0267 13.8644 64.8664 13.6046 64.7675 13.3221C64.6687 13.0396 64.6333 12.7406 64.6637 12.4443ZM68.1843 12.4443C68.1843 11.4683 67.7212 10.8975 66.9083 10.8975C66.0924 10.8975 65.6334 11.4683 65.6334 12.4444C65.6334 13.4282 66.0924 13.9946 66.9083 13.9946C67.7212 13.9946 68.1843 13.4243 68.1843 12.4443H68.1843Z" fill="white"/>
<path d="M70.1386 13.4243C70.1386 12.6138 70.7761 12.1465 71.9077 12.0801L73.1961 12.0098V11.6211C73.1961 11.1455 72.8639 10.877 72.2223 10.877C71.6983 10.877 71.3352 11.0591 71.231 11.3774H70.3222C70.4182 10.604 71.1867 10.1079 72.2656 10.1079C73.4581 10.1079 74.1306 10.6699 74.1306 11.6211V14.6977H73.227V14.0649H73.1528C73.002 14.2919 72.7903 14.477 72.5393 14.6012C72.2883 14.7254 72.007 14.7843 71.7241 14.7719C71.5244 14.7916 71.3226 14.7714 71.1317 14.7127C70.9407 14.654 70.7649 14.5581 70.6155 14.4311C70.4661 14.3042 70.3465 14.149 70.2644 13.9756C70.1822 13.8021 70.1394 13.6144 70.1386 13.4243ZM73.1961 13.0395V12.6631L72.0346 12.7334C71.3795 12.7749 71.0825 12.9858 71.0825 13.3828C71.0825 13.7881 71.4538 14.0239 71.9645 14.0239C72.1141 14.0382 72.2652 14.0239 72.4089 13.9819C72.5525 13.9398 72.6858 13.8707 72.8007 13.7789C72.9156 13.6871 73.0098 13.5743 73.0777 13.4473C73.1457 13.3202 73.1859 13.1816 73.1961 13.0395Z" fill="white"/>
<path d="M75.3643 12.4443C75.3643 11.0215 76.137 10.1201 77.3387 10.1201C77.636 10.1071 77.931 10.1746 78.1893 10.3144C78.4476 10.4543 78.6584 10.6609 78.7973 10.9101H78.8674V8.437H79.8061V14.6977H78.9066V13.9863H78.8324C78.6828 14.2338 78.4645 14.4378 78.2013 14.5763C77.938 14.7148 77.6397 14.7824 77.3387 14.7719C76.1287 14.772 75.3643 13.8706 75.3643 12.4443ZM76.334 12.4443C76.334 13.3994 76.8096 13.9741 77.6049 13.9741C78.396 13.9741 78.885 13.3911 78.885 12.4482C78.885 11.5098 78.3909 10.9185 77.6049 10.9185C76.8147 10.9185 76.334 11.4971 76.334 12.4443H76.334Z" fill="white"/>
<path d="M83.6899 12.4443C83.66 12.1484 83.6957 11.8498 83.7948 11.5678C83.894 11.2857 84.0543 11.0264 84.2655 10.8064C84.4767 10.5864 84.7341 10.4106 85.0212 10.2904C85.3084 10.1701 85.6189 10.108 85.9329 10.108C86.2469 10.108 86.5575 10.1701 86.8446 10.2904C87.1318 10.4106 87.3892 10.5864 87.6004 10.8064C87.8116 11.0264 87.9719 11.2857 88.071 11.5678C88.1702 11.8498 88.2059 12.1484 88.176 12.4443C88.2065 12.7406 88.1711 13.0395 88.0723 13.3221C87.9734 13.6046 87.8132 13.8644 87.602 14.0848C87.3907 14.3052 87.1331 14.4814 86.8457 14.6019C86.5582 14.7224 86.2473 14.7847 85.9329 14.7847C85.6186 14.7847 85.3077 14.7224 85.0202 14.6019C84.7328 14.4814 84.4752 14.3052 84.2639 14.0848C84.0527 13.8644 83.8924 13.6046 83.7936 13.3221C83.6947 13.0395 83.6594 12.7406 83.6899 12.4443ZM87.2105 12.4443C87.2105 11.4683 86.7473 10.8975 85.9345 10.8975C85.1185 10.8975 84.6595 11.4683 84.6595 12.4443C84.6595 13.4282 85.1186 13.9946 85.9345 13.9946C86.7473 13.9946 87.2105 13.4243 87.2105 12.4443Z" fill="white"/>
<path d="M89.4355 10.1948H90.3391V10.9102H90.4093C90.5283 10.6532 90.729 10.4379 90.9834 10.2941C91.2378 10.1502 91.5333 10.0852 91.8287 10.1079C92.0601 10.0914 92.2925 10.1245 92.5086 10.2046C92.7247 10.2847 92.919 10.4098 93.0771 10.5706C93.2352 10.7314 93.3531 10.9239 93.4219 11.1337C93.4908 11.3435 93.5089 11.5654 93.475 11.7827V14.6977H92.5363V12.0059C92.5363 11.2822 92.2041 10.9224 91.5099 10.9224C91.3528 10.9154 91.1959 10.9408 91.0501 10.9966C90.9043 11.0524 90.7729 11.1374 90.665 11.2458C90.5572 11.3542 90.4753 11.4834 90.4251 11.6245C90.3749 11.7657 90.3575 11.9154 90.3742 12.0635V14.6978H89.4355V10.1948Z" fill="white"/>
<path d="M98.7791 9.07373V10.2153H99.8096V10.9639H98.7791V13.2793C98.7791 13.751 98.9844 13.9575 99.4517 13.9575C99.5713 13.9572 99.6908 13.9503 99.8096 13.937V14.6772C99.6411 14.7058 99.4703 14.721 99.299 14.7226C98.2551 14.7226 97.8394 14.375 97.8394 13.5068V10.9638H97.0843V10.2153H97.8394V9.07373H98.7791Z" fill="white"/>
<path d="M101.092 8.437H102.022V10.9184H102.097C102.221 10.6591 102.428 10.4425 102.687 10.2982C102.947 10.1538 103.247 10.0888 103.547 10.1118C103.777 10.0999 104.007 10.1363 104.221 10.2184C104.435 10.3004 104.626 10.4261 104.783 10.5864C104.939 10.7468 105.057 10.9378 105.126 11.146C105.195 11.3541 105.216 11.5742 105.185 11.7905V14.6977H104.245V12.0097C104.245 11.2905 103.891 10.9262 103.228 10.9262C103.067 10.9137 102.905 10.9347 102.753 10.9878C102.601 11.0408 102.463 11.1247 102.349 11.2334C102.235 11.3421 102.147 11.4731 102.092 11.6173C102.037 11.7614 102.016 11.9152 102.031 12.0678V14.6977H101.092L101.092 8.437Z" fill="white"/>
<path d="M110.658 13.4819C110.531 13.8935 110.254 14.2495 109.878 14.4876C109.501 14.7258 109.048 14.8309 108.597 14.7847C108.284 14.7925 107.972 14.7357 107.685 14.6181C107.397 14.5006 107.139 14.3252 106.93 14.1041C106.721 13.8829 106.566 13.6214 106.474 13.3375C106.382 13.0537 106.357 12.7544 106.4 12.4604C106.358 12.1656 106.384 11.8656 106.475 11.581C106.567 11.2963 106.722 11.0335 106.93 10.8104C107.138 10.5874 107.394 10.4092 107.681 10.288C107.968 10.1668 108.279 10.1054 108.593 10.1079C109.917 10.1079 110.715 10.9639 110.715 12.3779V12.688H107.356V12.7378C107.342 12.903 107.364 13.0694 107.421 13.2261C107.478 13.3829 107.569 13.5266 107.688 13.648C107.808 13.7695 107.952 13.866 108.113 13.9314C108.274 13.9968 108.448 14.0296 108.623 14.0278C108.848 14.0533 109.075 14.015 109.277 13.9178C109.478 13.8206 109.644 13.6689 109.755 13.4819L110.658 13.4819ZM107.356 12.0308H109.759C109.771 11.8796 109.749 11.7278 109.695 11.5851C109.641 11.4424 109.556 11.3119 109.446 11.2021C109.336 11.0922 109.203 11.0054 109.055 10.9472C108.907 10.889 108.748 10.8608 108.588 10.8643C108.426 10.8623 108.264 10.8912 108.114 10.9491C107.964 11.0071 107.827 11.0929 107.712 11.2016C107.598 11.3104 107.507 11.4397 107.446 11.5821C107.385 11.7245 107.354 11.8771 107.356 12.0308H107.356Z" fill="white"/>
<path d="M24.769 20.3006C24.7797 19.466 25.0014 18.6476 25.4135 17.9216C25.8255 17.1957 26.4145 16.5857 27.1256 16.1486C26.6738 15.5034 26.0779 14.9725 25.385 14.5979C24.6922 14.2234 23.9216 14.0155 23.1344 13.9909C21.4552 13.8146 19.8272 14.9957 18.9715 14.9957C18.0992 14.9957 16.7817 14.0084 15.363 14.0376C14.4453 14.0672 13.551 14.3341 12.7671 14.8121C11.9832 15.2902 11.3365 15.9631 10.8901 16.7654C8.95607 20.1139 10.3987 25.0349 12.2513 27.7415C13.1782 29.0669 14.2615 30.5473 15.6789 30.4948C17.066 30.4373 17.584 29.6103 19.2583 29.6103C20.9171 29.6103 21.4031 30.4948 22.8493 30.4614C24.3377 30.4373 25.2754 29.1302 26.1698 27.7923C26.8358 26.8479 27.3483 25.8042 27.6882 24.6998C26.8235 24.3341 26.0856 23.7219 25.5665 22.9396C25.0474 22.1573 24.77 21.2395 24.769 20.3006Z" fill="white"/>
<path d="M22.0374 12.2108C22.8489 11.2366 23.2487 9.98445 23.1519 8.72021C21.9121 8.85044 20.7668 9.44299 19.9443 10.3798C19.5422 10.8375 19.2342 11.3699 19.0379 11.9467C18.8417 12.5235 18.7611 13.1333 18.8006 13.7412C19.4208 13.7476 20.0343 13.6132 20.5949 13.3481C21.1556 13.083 21.6488 12.6942 22.0374 12.2108Z" fill="white"/>
</g>
<defs>
<clipPath id="clip0_627:1429">
<rect width="126.4" height="40" fill="white"/>
</clipPath>
</defs>
</svg>
