<svg width="143" height="40" viewBox="0 0 143 40" fill="none" xmlns="http://www.w3.org/2000/svg">
<g clip-path="url(#clip0_627:1458)">
<path fill-rule="evenodd" clip-rule="evenodd" d="M137.187 40H5.5436C2.62789 40 0.253296 37.7456 0.253296 35V5C0.253296 2.24439 2.62789 0 5.5436 0H137.187C140.1 0 142.477 2.24439 142.477 5V35C142.477 37.7456 140.1 40 137.187 40Z" fill="black"/>
<path fill-rule="evenodd" clip-rule="evenodd" d="M137.187 0.800499C139.632 0.800499 141.634 2.68828 141.634 5V35C141.634 37.3117 139.645 39.1995 137.187 39.1995H5.5436C3.09808 39.1995 1.09649 37.3117 1.09649 35V5C1.09649 2.68828 3.08495 0.800499 5.5436 0.800499H137.187ZM137.187 0H5.5436C2.62789 0 0.253296 2.25436 0.253296 5V35C0.253296 37.7556 2.62789 40 5.5436 40H137.187C140.1 40 142.477 37.7556 142.477 35V5C142.477 2.25436 140.1 0 137.187 0Z" fill="#A6A6A6"/>
<path d="M68.3893 21.752C66.0373 21.752 64.1203 23.54 64.1203 26.005C64.1203 28.454 66.0373 30.258 68.3893 30.258C70.7413 30.258 72.6583 28.454 72.6583 26.005C72.6583 23.54 70.7413 21.752 68.3893 21.752ZM68.3893 28.583C67.1003 28.583 65.9883 27.52 65.9883 26.005C65.9883 24.474 67.1003 23.427 68.3893 23.427C69.6783 23.427 70.7893 24.474 70.7893 26.005C70.7893 27.519 69.6783 28.583 68.3893 28.583ZM59.0753 21.752C56.7233 21.752 54.8063 23.54 54.8063 26.005C54.8063 28.454 56.7233 30.258 59.0753 30.258C61.4273 30.258 63.3443 28.454 63.3443 26.005C63.3453 23.54 61.4273 21.752 59.0753 21.752ZM59.0753 28.583C57.7863 28.583 56.6753 27.52 56.6753 26.005C56.6753 24.474 57.7873 23.427 59.0753 23.427C60.3643 23.427 61.4753 24.474 61.4753 26.005C61.4763 27.519 60.3643 28.583 59.0753 28.583ZM47.9973 23.057V24.861H52.3153C52.1863 25.876 51.8483 26.617 51.3323 27.133C50.7043 27.761 49.7213 28.454 47.9973 28.454C45.3393 28.454 43.2613 26.311 43.2613 23.653C43.2613 20.995 45.3393 18.852 47.9973 18.852C49.4313 18.852 50.4783 19.416 51.2513 20.141L52.5243 18.868C51.4453 17.837 50.0113 17.047 47.9973 17.047C44.3563 17.047 41.2953 20.011 41.2953 23.652C41.2953 27.293 44.3563 30.257 47.9973 30.257C49.9623 30.257 51.4453 29.613 52.6053 28.404C53.7973 27.212 54.1683 25.536 54.1683 24.183C54.1683 23.764 54.1363 23.377 54.0713 23.055H47.9973V23.057ZM93.3053 24.458C92.9513 23.507 91.8713 21.751 89.6643 21.751C87.4733 21.751 85.6533 23.475 85.6533 26.004C85.6533 28.388 87.4573 30.257 89.8743 30.257C91.8233 30.257 92.9513 29.065 93.4183 28.372L91.9683 27.405C91.4853 28.114 90.8243 28.581 89.8743 28.581C88.9233 28.581 88.2473 28.146 87.8123 27.292L93.4993 24.94L93.3053 24.458ZM87.5053 25.876C87.4573 24.233 88.7783 23.395 89.7283 23.395C90.4693 23.395 91.0973 23.765 91.3073 24.297L87.5053 25.876ZM82.8813 30H84.7503V17.499H82.8813V30ZM79.8203 22.702H79.7563C79.3373 22.203 78.5323 21.751 77.5173 21.751C75.3903 21.751 73.4413 23.62 73.4413 26.02C73.4413 28.404 75.3903 30.257 77.5173 30.257C78.5323 30.257 79.3373 29.806 79.7563 29.29H79.8203V29.902C79.8203 31.529 78.9503 32.399 77.5483 32.399C76.4043 32.399 75.6953 31.577 75.4053 30.885L73.7783 31.562C74.2453 32.69 75.4863 34.075 77.5483 34.075C79.7393 34.075 81.5923 32.786 81.5923 29.645V22.009H79.8203V22.702ZM77.6783 28.583C76.3893 28.583 75.3103 27.504 75.3103 26.021C75.3103 24.523 76.3893 23.427 77.6783 23.427C78.9513 23.427 79.9493 24.522 79.9493 26.021C79.9493 27.503 78.9513 28.583 77.6783 28.583ZM102.059 17.499H97.5883V30H99.4533V25.264H102.058C104.126 25.264 106.159 23.767 106.159 21.382C106.159 18.997 104.127 17.499 102.059 17.499ZM102.107 23.524H99.4533V19.239H102.107C103.502 19.239 104.294 20.394 104.294 21.382C104.294 22.35 103.502 23.524 102.107 23.524ZM113.639 21.729C112.288 21.729 110.889 22.324 110.31 23.643L111.967 24.335C112.321 23.643 112.98 23.418 113.672 23.418C114.637 23.418 115.618 23.997 115.634 25.026V25.155C115.296 24.962 114.572 24.672 113.688 24.672C111.903 24.672 110.085 25.653 110.085 27.487C110.085 29.16 111.549 30.237 113.189 30.237C114.444 30.237 115.135 29.674 115.569 29.015H115.633V29.98H117.434V25.187C117.434 22.967 115.778 21.729 113.639 21.729ZM113.413 28.58C112.802 28.58 111.949 28.274 111.949 27.519C111.949 26.554 113.011 26.184 113.927 26.184C114.747 26.184 115.133 26.361 115.632 26.602C115.488 27.76 114.491 28.58 113.413 28.58ZM123.996 22.002L121.857 27.422H121.793L119.574 22.002H117.564L120.893 29.577L118.995 33.791H120.941L126.072 22.002H123.996ZM107.189 30H109.055V17.499H107.189V30Z" fill="white"/>
<path fill-rule="evenodd" clip-rule="evenodd" d="M77.7881 12.224C77.1667 12.831 76.3946 13.133 75.4708 13.133C74.547 13.133 73.7749 12.83 73.1545 12.224C72.5331 11.618 72.2234 10.876 72.2234 9.999C72.2234 9.122 72.5331 8.38 73.1545 7.774C73.7749 7.167 74.547 6.864 75.4708 6.864C76.3893 6.864 77.1604 7.169 77.7839 7.778C78.4075 8.387 78.7193 9.127 78.7193 9.999C78.7193 10.877 78.4086 11.619 77.7881 12.224ZM73.7539 11.722C74.2216 12.172 74.7935 12.396 75.4708 12.396C76.1481 12.396 76.7201 12.171 77.1877 11.722C77.6554 11.272 77.8903 10.698 77.8903 10C77.8903 9.302 77.6554 8.727 77.1877 8.278C76.7211 7.828 76.1481 7.604 75.4708 7.604C74.7935 7.604 74.2216 7.829 73.7539 8.278C73.2872 8.728 73.0524 9.302 73.0524 10C73.0524 10.698 73.2872 11.272 73.7539 11.722Z" fill="white"/>
<path d="M50.2003 10.243C50.2003 11.081 49.9391 11.748 49.4155 12.246C48.8215 12.838 48.0462 13.134 47.094 13.134C46.1818 13.134 45.4055 12.834 44.7682 12.234C44.1299 11.633 43.8108 10.889 43.8108 10.001C43.8108 9.112 44.1299 8.368 44.7682 7.768C45.4055 7.167 46.1818 6.867 47.094 6.867C47.5469 6.867 47.9799 6.951 48.3907 7.118C48.8025 7.286 49.1322 7.509 49.3787 7.788L48.8236 8.316C48.4054 7.841 47.8292 7.604 47.0929 7.604C46.4272 7.604 45.8521 7.826 45.3665 8.27C44.882 8.714 44.6397 9.29 44.6397 10C44.6397 10.71 44.882 11.286 45.3676 11.731C45.8532 12.175 46.4283 12.397 47.094 12.397C47.7997 12.397 48.3885 12.174 48.8594 11.727C49.1649 11.436 49.3418 11.031 49.3892 10.512H47.094V9.79H50.156C50.1866 9.947 50.2003 10.098 50.2003 10.243Z" fill="white"/>
<path d="M55.0562 7.737H52.1784V9.639H54.7739V10.36H52.1784V12.262H55.0562V13H51.3663V7H55.0562V7.737Z" fill="white"/>
<path d="M57.6674 13H58.4795V7.737H60.2449V7H55.902V7.737H57.6674V13Z" fill="white"/>
<path d="M63.388 13V7H64.2001V13H63.388Z" fill="white"/>
<path d="M66.9883 13H67.8004V7.737H69.5658V7H65.2229V7.737H66.9883V13Z" fill="white"/>
<path d="M79.859 7V13H80.669V9.262L80.6342 8.106H80.669L83.8827 13H84.7306V7H83.9185V10.512L83.9533 11.668H83.9185L80.847 7H79.859Z" fill="white"/>
<path fill-rule="evenodd" clip-rule="evenodd" d="M77.7881 12.224C77.1667 12.831 76.3946 13.133 75.4708 13.133C74.547 13.133 73.7749 12.83 73.1545 12.224C72.5331 11.618 72.2234 10.876 72.2234 9.999C72.2234 9.122 72.5331 8.38 73.1545 7.774C73.7749 7.167 74.547 6.864 75.4708 6.864C76.3893 6.864 77.1604 7.169 77.7839 7.778C78.4075 8.387 78.7193 9.127 78.7193 9.999C78.7193 10.877 78.4086 11.619 77.7881 12.224ZM73.7539 11.722C74.2216 12.172 74.7935 12.396 75.4708 12.396C76.1481 12.396 76.7201 12.171 77.1877 11.722C77.6554 11.272 77.8903 10.698 77.8903 10C77.8903 9.302 77.6554 8.727 77.1877 8.278C76.7211 7.828 76.1481 7.604 75.4708 7.604C74.7935 7.604 74.2216 7.829 73.7539 8.278C73.2872 8.728 73.0524 9.302 73.0524 10C73.0524 10.698 73.2872 11.272 73.7539 11.722Z" stroke="white" stroke-width="0.2" stroke-miterlimit="10"/>
<path d="M50.2003 10.243C50.2003 11.081 49.9391 11.748 49.4155 12.246C48.8215 12.838 48.0462 13.134 47.094 13.134C46.1818 13.134 45.4055 12.834 44.7682 12.234C44.1299 11.633 43.8108 10.889 43.8108 10.001C43.8108 9.112 44.1299 8.368 44.7682 7.768C45.4055 7.167 46.1818 6.867 47.094 6.867C47.5469 6.867 47.9799 6.951 48.3907 7.118C48.8025 7.286 49.1322 7.509 49.3787 7.788L48.8236 8.316C48.4054 7.841 47.8292 7.604 47.0929 7.604C46.4272 7.604 45.8521 7.826 45.3665 8.27C44.882 8.714 44.6397 9.29 44.6397 10C44.6397 10.71 44.882 11.286 45.3676 11.731C45.8532 12.175 46.4283 12.397 47.094 12.397C47.7997 12.397 48.3885 12.174 48.8594 11.727C49.1649 11.436 49.3418 11.031 49.3892 10.512H47.094V9.79H50.156C50.1866 9.947 50.2003 10.098 50.2003 10.243Z" stroke="white" stroke-width="0.2" stroke-miterlimit="10"/>
<path d="M55.0562 7.737H52.1784V9.639H54.7739V10.36H52.1784V12.262H55.0562V13H51.3663V7H55.0562V7.737Z" stroke="white" stroke-width="0.2" stroke-miterlimit="10"/>
<path d="M57.6674 13H58.4795V7.737H60.2449V7H55.902V7.737H57.6674V13Z" stroke="white" stroke-width="0.2" stroke-miterlimit="10"/>
<path d="M63.388 13V7H64.2001V13H63.388Z" stroke="white" stroke-width="0.2" stroke-miterlimit="10"/>
<path d="M66.9883 13H67.8004V7.737H69.5658V7H65.2229V7.737H66.9883V13Z" stroke="white" stroke-width="0.2" stroke-miterlimit="10"/>
<path d="M79.859 7V13H80.669V9.262L80.6342 8.106H80.669L83.8827 13H84.7306V7H83.9185V10.512L83.9533 11.668H83.9185L80.847 7H79.859Z" stroke="white" stroke-width="0.2" stroke-miterlimit="10"/>
<path d="M10.6883 7.53798C10.3973 7.84598 10.2253 8.32398 10.2253 8.94298V31.059C10.2253 31.679 10.3973 32.156 10.6883 32.464L10.7623 32.536L23.1513 20.147V20.001V19.855L10.7623 7.46498L10.6883 7.53798Z" fill="url(#paint-one)"/>
<path d="M27.2813 24.279L23.1523 20.148V20.002V19.856L27.2823 15.726L27.3753 15.779L32.2683 18.559C33.6663 19.353 33.6663 20.652 32.2683 21.447L27.3753 24.227L27.2813 24.279Z" fill="url(#paint-two)"/>
<path d="M27.3753 24.225L23.1523 20.001L10.6883 32.464C11.1493 32.952 11.9093 33.012 12.7663 32.525L27.3753 24.225Z" fill="url(#paint-three)"/>
<path d="M27.3753 15.777L12.7673 7.47699C11.9103 6.98999 11.1503 7.05099 10.6893 7.53799L23.1523 20.001L27.3753 15.777Z" fill="url(#paint-four)"/>
<path opacity="0.2" d="M27.2823 24.132L12.7673 32.379C11.9553 32.84 11.2293 32.81 10.7633 32.39L10.6883 32.465L10.7623 32.537C11.2283 32.957 11.9543 32.988 12.7663 32.526L27.3743 24.226L27.2823 24.132Z" fill="black"/>
<path opacity="0.12" d="M10.6883 32.318C10.3973 32.01 10.2253 31.532 10.2253 30.913V31.059C10.2253 31.678 10.3973 32.156 10.6883 32.464L10.7633 32.389L10.6883 32.318Z" fill="black"/>
<path opacity="0.12" d="M32.2683 21.299L27.2823 24.132L27.3753 24.225L32.2683 21.445C32.9673 21.048 33.3163 20.525 33.3163 20.002C33.2573 20.475 32.9013 20.939 32.2683 21.299Z" fill="black"/>
<path opacity="0.25" d="M12.7663 7.62299L32.2673 18.703C32.9013 19.063 33.2563 19.527 33.3153 20.001C33.3153 19.478 32.9663 18.954 32.2673 18.557L12.7663 7.47699C11.3683 6.68299 10.2253 7.34199 10.2253 8.94299V9.08999C10.2253 7.48899 11.3693 6.82899 12.7663 7.62299Z" fill="white"/>
</g>
<defs>
<linearGradient id="paint-one" x1="22.0529" y1="8.70978" x2="5.27048" y2="25.4922" gradientUnits="userSpaceOnUse">
<stop stop-color="#00A0FF"/>
<stop offset="0.0066" stop-color="#00A1FF"/>
<stop offset="0.2601" stop-color="#00BEFF"/>
<stop offset="0.5122" stop-color="#00D2FF"/>
<stop offset="0.7604" stop-color="#00DFFF"/>
<stop offset="1" stop-color="#00E3FF"/>
</linearGradient>
<linearGradient id="paint-two" x1="34.0876" y1="20.0015" x2="9.89068" y2="20.0015" gradientUnits="userSpaceOnUse">
<stop stop-color="#FFE000"/>
<stop offset="0.4087" stop-color="#FFBD00"/>
<stop offset="0.7754" stop-color="#FFA500"/>
<stop offset="1" stop-color="#FF9C00"/>
</linearGradient>
<linearGradient id="paint-three" x1="25.0802" y1="22.2962" x2="2.32189" y2="45.0545" gradientUnits="userSpaceOnUse">
<stop stop-color="#FF3A44"/>
<stop offset="1" stop-color="#C31162"/>
</linearGradient>
<linearGradient id="paint-four" x1="7.5505" y1="0.176287" x2="17.7131" y2="10.3388" gradientUnits="userSpaceOnUse">
<stop stop-color="#32A071"/>
<stop offset="0.0685" stop-color="#2DA771"/>
<stop offset="0.4762" stop-color="#15CF74"/>
<stop offset="0.8009" stop-color="#06E775"/>
<stop offset="1" stop-color="#00F076"/>
</linearGradient>
<clipPath id="clip0_627:1458">
<rect width="142.2" height="40" fill="white" transform="translate(0.253296)"/>
</clipPath>
</defs>
</svg>
