<svg width="280" height="82" viewBox="0 0 280 82" fill="none" xmlns="http://www.w3.org/2000/svg">
<path fill-rule="evenodd" clip-rule="evenodd" d="M81.0872 40.5436C81.0872 52.5403 75.8767 63.3201 67.5953 70.7433C66.2214 64.4116 59.8778 49.0579 47.5072 44.5029H43.836C43.1788 45.639 41.9505 46.4034 40.5436 46.4034C39.1367 46.4034 37.9083 45.639 37.2511 44.5029H33.6135C21.3705 49.0968 15.0662 64.5498 13.6657 70.8981C5.28346 63.4704 0 52.624 0 40.5436C0 18.152 18.152 0 40.5436 0C62.9352 0 81.0872 18.152 81.0872 40.5436ZM34.0503 40.702H37.2511C37.9083 39.5659 39.1367 38.8015 40.5436 38.8015C41.9505 38.8015 43.1788 39.5659 43.836 40.702H47.1953V35.665C50.046 34.5544 53.0551 29.6362 48.779 26.1458V18.0546H47.1953V26.1458L40.6368 31.7772L34.0503 26.1316V18.0546H32.4665V26.1316C28.1905 29.6158 31.1996 34.5254 34.0503 35.634V40.702ZM40.5436 44.6613C41.5932 44.6613 42.4441 43.8104 42.4441 42.7608C42.4441 41.7112 41.5932 40.8603 40.5436 40.8603C39.494 40.8603 38.6431 41.7112 38.6431 42.7608C38.6431 43.8104 39.494 44.6613 40.5436 44.6613Z" fill="url(#logo_horizontal_gradient_one)"/>
<path d="M43.8694 44.3908H47.1953C59.7713 48.8002 66.2099 64.3586 67.5953 70.7433C64.235 73.6651 61.9931 75.1433 57.3312 77.4833C58.0914 56.989 48.6734 47.0935 43.8694 44.3908Z" fill="url(#logo_horizontal_gradient_two)" fill-opacity="0.2"/>
<path d="M48.779 26.1458C53.0551 29.6362 50.046 34.5544 47.1953 35.665L40.6365 31.7775L47.1953 26.1458V18.0546H48.779V26.1458Z" fill="url(#logo_horizontal_gradient_three)" fill-opacity="0.2"/>
<path d="M94.6017 41.4124H96.8405C97.4002 41.4124 97.68 41.1326 97.68 40.5729V22.1029C97.68 21.8127 97.6075 21.6054 97.4624 21.481C97.338 21.3359 97.1307 21.2634 96.8405 21.2634H94.6017V20.2684H104.117V21.2634H101.38C101.09 21.2634 100.872 21.3359 100.727 21.481C100.603 21.6054 100.541 21.8127 100.541 22.1029V40.5729C100.541 41.1326 100.821 41.4124 101.38 41.4124H104.521C105.619 41.4124 106.604 41.1637 107.475 40.6662C108.345 40.1686 108.998 39.4431 109.434 38.4896C109.765 37.7848 110.035 37.0385 110.242 36.2508C110.47 35.4423 110.636 34.7583 110.74 34.1986C110.843 33.6389 110.905 33.2865 110.926 33.1414H111.704L111.424 42.4074H94.6017V41.4124Z" fill="#AF5E6C"/>
<path d="M113.878 41.4124H116.116C116.676 41.4124 116.956 41.1326 116.956 40.5729V22.1029C116.956 21.8127 116.883 21.6054 116.738 21.481C116.614 21.3359 116.407 21.2634 116.116 21.2634H113.878V20.2684H131.228L131.353 28.0419H130.575C130.575 27.6273 130.482 26.9225 130.295 25.9275C130.13 24.9325 129.788 24.0411 129.269 23.2534C128.399 21.9267 127.176 21.2634 125.6 21.2634H120.656C120.366 21.2634 120.148 21.3359 120.003 21.481C119.879 21.6054 119.817 21.8127 119.817 22.1029V30.4673H122.211C123.268 30.4673 124.025 29.9283 124.481 28.8504C124.958 27.7724 125.196 26.6219 125.196 25.3989H126.004V36.5306H125.196C125.196 35.3076 124.958 34.1571 124.481 33.0792C124.025 32.0012 123.268 31.4623 122.211 31.4623H119.817V40.5729C119.817 41.1326 120.097 41.4124 120.656 41.4124H125.631C126.232 41.4124 126.844 41.2777 127.466 41.0082C128.088 40.7387 128.616 40.3241 129.052 39.7644C129.466 39.184 129.808 38.4585 130.078 37.5878C130.347 36.7172 130.534 35.9295 130.637 35.2247C130.741 34.4991 130.803 34.0327 130.824 33.8254H131.601L131.228 42.4074H113.878V41.4124Z" fill="#AF5E6C"/>
<path d="M138.238 23.6576H138.113V38.9249C138.113 39.6919 138.29 40.3034 138.642 40.7594C139.015 41.1948 139.492 41.4124 140.072 41.4124H141.192V42.4074H133.791V41.4124H134.911C135.512 41.4124 135.989 41.1948 136.341 40.7594C136.693 40.3034 136.87 39.6919 136.87 38.9249V22.1029C136.849 21.8127 136.776 21.6054 136.652 21.481C136.528 21.3359 136.32 21.2634 136.03 21.2634H133.791V20.2684H139.668L150.458 37.6189V23.7509C150.458 22.9839 150.282 22.3828 149.929 21.9475C149.577 21.4914 149.11 21.2634 148.53 21.2634H147.411V20.2684H154.811V21.2634H153.692C153.111 21.2634 152.634 21.4914 152.261 21.9475C151.888 22.3828 151.702 22.9839 151.702 23.7509V42.9671H150.458L138.238 23.6576Z" fill="#AF5E6C"/>
<path d="M154.665 41.4124H155.815C157.038 41.4124 157.93 40.6558 158.49 39.1425L165.175 20.2684H165.952L172.7 40.0443C172.907 40.5625 173.156 40.9253 173.446 41.1326C173.736 41.3191 174.109 41.4124 174.565 41.4124H176.307V42.4074H166.667V41.4124H168.72C169.03 41.4124 169.29 41.3399 169.497 41.1948C169.704 41.0289 169.808 40.8424 169.808 40.6351C169.808 40.3656 169.766 40.1376 169.683 39.951L168.222 35.8155H160.946L160.2 37.8988C159.91 38.7279 159.764 39.3291 159.764 39.7022C159.764 40.1583 159.878 40.5625 160.106 40.9149C160.334 41.2466 160.728 41.4124 161.288 41.4124H163.185V42.4074H154.665V41.4124ZM161.288 34.8204H167.88L164.646 25.3367L161.288 34.8204Z" fill="#AF5E6C"/>
<path d="M189.022 23.0668H188.836V38.9249C188.836 39.6919 189.012 40.3034 189.364 40.7594C189.737 41.1948 190.214 41.4124 190.795 41.4124H191.914V42.4074H184.514V41.4124H185.633C186.213 41.4124 186.68 41.1948 187.032 40.7594C187.405 40.3034 187.592 39.6919 187.592 38.9249V22.1029C187.592 21.8127 187.519 21.6054 187.374 21.481C187.25 21.3359 187.043 21.2634 186.752 21.2634H184.514V20.2684H191.106L196.174 37.4013L200.9 20.2684H207.337V21.2634H205.098C204.808 21.2634 204.59 21.3359 204.445 21.481C204.321 21.6054 204.258 21.8127 204.258 22.1029V40.5729C204.258 41.1326 204.538 41.4124 205.098 41.4124H207.337V42.4074H198.319V41.4124H200.558C201.118 41.4124 201.398 41.1326 201.398 40.5729V22.2273L195.708 42.7806H194.961L189.022 23.0668Z" fill="#AF5E6C"/>
<path d="M209.012 41.4124H211.251C211.811 41.4124 212.091 41.1326 212.091 40.5729V22.1029C212.091 21.8127 212.018 21.6054 211.873 21.481C211.749 21.3359 211.541 21.2634 211.251 21.2634H209.012V20.2684H226.363L226.487 28.0419H225.71C225.71 27.6273 225.617 26.9225 225.43 25.9275C225.264 24.9325 224.922 24.0411 224.404 23.2534C223.533 21.9267 222.31 21.2634 220.735 21.2634H215.791C215.501 21.2634 215.283 21.3359 215.138 21.481C215.014 21.6054 214.951 21.8127 214.951 22.1029V30.4673H217.346C218.403 30.4673 219.16 29.9283 219.616 28.8504C220.092 27.7724 220.331 26.6219 220.331 25.3989H221.139V36.5306H220.331C220.331 35.3076 220.092 34.1571 219.616 33.0792C219.16 32.0012 218.403 31.4623 217.346 31.4623H214.951V40.5729C214.951 41.1326 215.231 41.4124 215.791 41.4124H220.766C221.367 41.4124 221.979 41.2777 222.601 41.0082C223.223 40.7387 223.751 40.3241 224.186 39.7644C224.601 39.184 224.943 38.4585 225.213 37.5878C225.482 36.7172 225.669 35.9295 225.772 35.2247C225.876 34.4991 225.938 34.0327 225.959 33.8254H226.736L226.363 42.4074H209.012V41.4124Z" fill="#AF5E6C"/>
<path d="M228.926 41.4124H231.165C231.725 41.4124 232.004 41.1326 232.004 40.5729V22.1029C232.004 21.8127 231.932 21.6054 231.787 21.481C231.662 21.3359 231.455 21.2634 231.165 21.2634H228.926V20.2684H238.441V21.2634H235.705C235.414 21.2634 235.197 21.3359 235.052 21.481C234.927 21.6054 234.865 21.8127 234.865 22.1029V40.5729C234.865 41.1326 235.145 41.4124 235.705 41.4124H238.845C239.944 41.4124 240.928 41.1637 241.799 40.6662C242.67 40.1686 243.323 39.4431 243.758 38.4896C244.09 37.7848 244.359 37.0385 244.566 36.2508C244.795 35.4423 244.96 34.7583 245.064 34.1986C245.168 33.6389 245.23 33.2865 245.251 33.1414H246.028L245.748 42.4074H228.926V41.4124Z" fill="#AF5E6C"/>
<path d="M257.468 42.9671C255.727 42.9671 254.172 42.4178 252.804 41.3191C251.436 40.2205 250.368 38.7798 249.601 36.997C248.834 35.1936 248.451 33.3072 248.451 31.3379C248.451 29.3686 248.834 27.4926 249.601 25.7099C250.368 23.9064 251.436 22.4553 252.804 21.3567C254.172 20.258 255.727 19.7087 257.468 19.7087C259.209 19.7087 260.764 20.258 262.132 21.3567C263.5 22.4553 264.568 23.9064 265.335 25.7099C266.102 27.4926 266.485 29.3686 266.485 31.3379C266.485 33.3072 266.102 35.1936 265.335 36.997C264.568 38.7798 263.5 40.2205 262.132 41.3191C260.764 42.4178 259.209 42.9671 257.468 42.9671ZM257.468 41.9721C259.5 41.9721 260.961 41.0496 261.852 39.2047C262.744 37.3391 263.189 34.7168 263.189 31.3379C263.189 27.9383 262.744 25.316 261.852 23.4711C260.961 21.6262 259.5 20.7037 257.468 20.7037C255.437 20.7037 253.975 21.6262 253.084 23.4711C252.192 25.316 251.747 27.9383 251.747 31.3379C251.747 34.7168 252.192 37.3391 253.084 39.2047C253.975 41.0496 255.437 41.9721 257.468 41.9721Z" fill="#AF5E6C"/>
<path d="M101.869 72.0775C100.986 72.0775 100.215 71.8785 99.5557 71.4805C98.8965 71.0825 98.3865 70.5228 98.0258 69.8014C97.6651 69.0676 97.4848 68.2218 97.4848 67.2641C97.4848 66.294 97.6651 65.442 98.0258 64.7082C98.3865 63.9619 98.9027 63.3898 99.5743 62.9918C100.246 62.5813 101.023 62.3761 101.906 62.3761C102.541 62.3761 103.144 62.4881 103.716 62.7119C104.301 62.9234 104.779 63.2219 105.153 63.6074L104.705 64.503C104.22 64.105 103.753 63.8189 103.306 63.6448C102.87 63.4582 102.416 63.3649 101.944 63.3649C100.936 63.3649 100.14 63.7132 99.5557 64.4097C98.9711 65.0937 98.6788 66.0452 98.6788 67.2641C98.6788 68.4581 98.9649 69.391 99.537 70.0626C100.122 70.7342 100.924 71.07 101.944 71.07C102.416 71.07 102.87 70.983 103.306 70.8089C103.753 70.6223 104.22 70.3362 104.705 69.9507L105.153 70.8275C104.755 71.2131 104.257 71.5178 103.66 71.7417C103.076 71.9656 102.479 72.0775 101.869 72.0775Z" fill="#AF5E6C"/>
<path d="M120.269 72.0775C119.411 72.0775 118.652 71.8785 117.993 71.4805C117.346 71.0825 116.842 70.5166 116.481 69.7827C116.133 69.0489 115.959 68.1969 115.959 67.2268C115.959 66.2567 116.133 65.4047 116.481 64.6709C116.842 63.937 117.346 63.3711 117.993 62.9731C118.652 62.5751 119.411 62.3761 120.269 62.3761C121.115 62.3761 121.861 62.5751 122.508 62.9731C123.154 63.3711 123.652 63.937 124 64.6709C124.361 65.4047 124.541 66.2567 124.541 67.2268C124.541 68.1969 124.361 69.0489 124 69.7827C123.652 70.5166 123.154 71.0825 122.508 71.4805C121.861 71.8785 121.115 72.0775 120.269 72.0775ZM120.25 71.07C121.245 71.07 122.01 70.7405 122.545 70.0813C123.092 69.4096 123.366 68.4581 123.366 67.2268C123.366 66.0079 123.092 65.0627 122.545 64.391C121.998 63.7069 121.239 63.3649 120.269 63.3649C119.286 63.3649 118.521 63.7069 117.974 64.391C117.427 65.0627 117.153 66.0079 117.153 67.2268C117.153 68.4706 117.421 69.4221 117.955 70.0813C118.49 70.7405 119.255 71.07 120.25 71.07Z" fill="#AF5E6C"/>
<path d="M139.401 72.0775C137.884 72.0775 136.684 71.6608 135.801 70.8275L136.211 69.9507C136.709 70.3611 137.206 70.6534 137.704 70.8275C138.214 71.0016 138.798 71.0887 139.457 71.0887C140.229 71.0887 140.813 70.9581 141.211 70.6969C141.622 70.4233 141.827 70.0315 141.827 69.5216C141.827 69.0987 141.69 68.7691 141.416 68.5328C141.155 68.284 140.72 68.085 140.11 67.9358L138.525 67.5813C137.778 67.4072 137.188 67.0962 136.752 66.6485C136.329 66.2007 136.118 65.6783 136.118 65.0813C136.118 64.2604 136.429 63.6074 137.051 63.1224C137.685 62.6249 138.525 62.3761 139.569 62.3761C140.229 62.3761 140.838 62.4818 141.398 62.6933C141.97 62.9047 142.442 63.2094 142.816 63.6074L142.386 64.4843C141.528 63.738 140.589 63.3649 139.569 63.3649C138.848 63.3649 138.288 63.5079 137.89 63.794C137.492 64.0801 137.293 64.4781 137.293 64.988C137.293 65.4109 137.418 65.7529 137.666 66.0141C137.928 66.2753 138.326 66.4681 138.86 66.5925L140.465 66.9843C142.144 67.3574 142.984 68.1845 142.984 69.4656C142.984 70.2492 142.66 70.8835 142.013 71.3686C141.367 71.8412 140.496 72.0775 139.401 72.0775Z" fill="#AF5E6C"/>
<path d="M156.402 63.5142V69.0738C156.402 69.8201 156.545 70.3362 156.831 70.6223C157.118 70.9084 157.54 71.0514 158.1 71.0514C158.448 71.0514 158.784 70.9954 159.108 70.8835V71.9096C158.71 72.0091 158.305 72.0588 157.895 72.0588C157.074 72.0588 156.427 71.8287 155.955 71.3686C155.494 70.9084 155.264 70.2181 155.264 69.2977V63.5142H153.417V62.6H155.264V60.1187L156.402 59.6896V62.6H159.163V63.5142H156.402Z" fill="#AF5E6C"/>
<path d="M177.949 62.6V71.9469H176.848V70.2492C176.55 70.8462 176.127 71.3001 175.58 71.6111C175.032 71.922 174.404 72.0775 173.695 72.0775C172.601 72.0775 171.774 71.7728 171.214 71.1633C170.654 70.5539 170.374 69.6522 170.374 68.4581V62.6H171.494V68.3835C171.494 69.3039 171.68 69.9818 172.054 70.4171C172.427 70.8524 173.005 71.07 173.789 71.07C174.709 71.07 175.443 70.784 175.99 70.2118C176.537 69.6273 176.811 68.8561 176.811 67.8984V62.6H177.949Z" fill="#AF5E6C"/>
<path d="M194.41 62.3761C194.721 62.3761 194.995 62.401 195.231 62.4507L195.175 63.4768C194.939 63.4271 194.653 63.4022 194.317 63.4022C193.372 63.4022 192.663 63.7069 192.19 64.3164C191.73 64.9134 191.5 65.6286 191.5 66.4619V71.9469H190.38V65.1932C190.38 64.2231 190.331 63.3587 190.231 62.6H191.313L191.463 64.335C191.699 63.7007 192.078 63.2157 192.601 62.8798C193.135 62.544 193.739 62.3761 194.41 62.3761Z" fill="#AF5E6C"/>
<path d="M206.628 67.1335V67.1895C206.628 68.4457 206.914 69.4096 207.486 70.0813C208.071 70.7405 208.916 71.07 210.023 71.07C211.143 71.07 212.169 70.6845 213.102 69.9133L213.549 70.8089C213.139 71.1944 212.617 71.5054 211.982 71.7417C211.348 71.9656 210.695 72.0775 210.023 72.0775C208.605 72.0775 207.486 71.6484 206.665 70.7902C205.844 69.932 205.434 68.7504 205.434 67.2455C205.434 66.2878 205.614 65.442 205.975 64.7082C206.348 63.9619 206.864 63.3898 207.523 62.9918C208.183 62.5813 208.941 62.3761 209.799 62.3761C211.031 62.3761 211.988 62.7741 212.673 63.5701C213.369 64.3661 213.717 65.4731 213.717 66.891V67.1335H206.628ZM209.799 63.3089C208.941 63.3089 208.245 63.5701 207.71 64.0925C207.175 64.6025 206.839 65.3238 206.702 66.2567H212.635C212.561 65.299 212.281 64.5714 211.796 64.0739C211.311 63.5639 210.645 63.3089 209.799 63.3089Z" fill="#AF5E6C"/>
<path d="M225.489 62.6H226.608V71.9469H225.489V62.6ZM226.832 58.7381V60.1933H225.321V58.7381H226.832Z" fill="#AF5E6C"/>
<path d="M243.092 62.3761C243.403 62.3761 243.677 62.401 243.913 62.4507L243.857 63.4768C243.621 63.4271 243.335 63.4022 242.999 63.4022C242.054 63.4022 241.345 63.7069 240.872 64.3164C240.412 64.9134 240.182 65.6286 240.182 66.4619V71.9469H239.062V65.1932C239.062 64.2231 239.013 63.3587 238.913 62.6H239.995L240.144 64.335C240.381 63.7007 240.76 63.2157 241.282 62.8798C241.817 62.544 242.42 62.3761 243.092 62.3761Z" fill="#AF5E6C"/>
<path d="M262.642 62.6V71.9469H261.504V70.1559C261.23 70.7778 260.813 71.2566 260.254 71.5924C259.706 71.9158 259.047 72.0775 258.276 72.0775C257.443 72.0775 256.709 71.8847 256.075 71.4991C255.453 71.1011 254.968 70.5414 254.619 69.8201C254.284 69.0862 254.116 68.2343 254.116 67.2641C254.116 66.294 254.29 65.442 254.638 64.7082C254.986 63.9619 255.471 63.3898 256.093 62.9918C256.728 62.5813 257.455 62.3761 258.276 62.3761C259.035 62.3761 259.688 62.5378 260.235 62.8612C260.795 63.1846 261.218 63.6572 261.504 64.2791V62.6H262.642ZM258.444 71.07C259.414 71.07 260.167 70.7342 260.701 70.0626C261.236 69.391 261.504 68.4457 261.504 67.2268C261.504 65.9955 261.236 65.044 260.701 64.3724C260.167 63.7007 259.408 63.3649 258.425 63.3649C257.443 63.3649 256.678 63.7132 256.131 64.4097C255.583 65.0937 255.31 66.0452 255.31 67.2641C255.31 68.4706 255.583 69.4096 256.131 70.0813C256.678 70.7405 257.449 71.07 258.444 71.07Z" fill="#AF5E6C"/>
<defs>
<linearGradient id="logo_horizontal_gradient_one" x1="40.5436" y1="0" x2="40.5436" y2="70.8981" gradientUnits="userSpaceOnUse">
<stop stop-color="#FFA59F"/>
<stop offset="1" stop-color="#F3758A"/>
</linearGradient>
<linearGradient id="logo_horizontal_gradient_two" x1="55.7474" y1="44.3908" x2="55.7474" y2="78.1168" gradientUnits="userSpaceOnUse">
<stop stop-color="#E17280" stop-opacity="0"/>
<stop offset="1" stop-color="#E47786"/>
</linearGradient>
<linearGradient id="logo_horizontal_gradient_three" x1="40.5436" y1="26.29" x2="47.1953" y2="35.634" gradientUnits="userSpaceOnUse">
<stop offset="0.298363" stop-color="#E47786"/>
<stop offset="1" stop-color="#E17280" stop-opacity="0"/>
</linearGradient>
</defs>
</svg>
